<?xml version="1.0" standalone="yes"?>
<svg xmlns="http://www.w3.org/2000/svg" width="512" height="512">
<path style="fill:#010101; stroke:none;" d="M0 0L0 512L512 512L512 0L0 0z"/>
<path style="fill:#f7a12f; stroke:none;" d="M99 56C75.987 56 49.1023 52.741 31.0008 70.0401C12.8932 87.345 14 107.833 14 131C14 138.406 12.4484 149.182 16.027 155.961C19.0077 161.606 26.4847 166.485 31 171C35.285 175.285 40.1766 182.25 46 184.397C53.9753 187.337 66.5329 185 75 185L141 185L364 185C358.047 176.549 343.77 160.206 334 156.603C328.076 154.419 319.262 156 313 156L266 156L43 156C43 135.608 35.0647 96.9772 59 87.4792C70.2603 83.0109 86.9998 86 99 86C99 96.0035 95.9553 112.091 101.09 120.996C106.358 130.135 121.469 130.83 126.543 120.985C131.111 112.122 128 95.8242 128 86L241 86C241 96.1087 238.373 110.625 242.653 119.996C246.724 128.911 259.963 130.836 266.657 123.786C283.354 106.201 261.434 83.3773 249 72.5756C243.801 68.0592 238.562 60.0226 232 57.6034C222.763 54.1977 207.848 56 198 56L128 56C128 46.2618 130.89 30.9914 126.91 22.0146C122.305 11.6237 106.653 11.521 101.09 21.0154C95.9214 29.8359 99 46.0595 99 56z"/>
<path style="fill:#ef703d; stroke:none;" d="M118 14L119 15L118 14M241 56L215 56L215 57C219.892 57 226.362 55.8932 231 57.6034C240.016 60.9277 250.184 74.1953 257 81C262.234 86.2253 269.41 91.1699 270 99L271 99L271 86L384 86C384 95.8243 380.889 112.122 385.457 120.985C390.531 130.83 405.642 130.135 410.91 120.996C416.045 112.091 413 96.0035 413 86C424.945 86 441.815 82.9631 453 87.4822C476.894 97.1361 469 135.623 469 156L335 156C340.989 164.502 355.15 180.765 365 184.397C373.742 187.62 387.708 185 397 185L469 185L469 255C469 264.017 466.474 277.514 469.603 286C473.177 295.693 489.698 308.152 498 314L498 146C498 121.059 502.614 93.0786 484.245 73.1698C465.603 52.9642 438.016 56 413 56C413 46.0595 416.079 29.8359 410.91 21.0154C405.603 11.9568 390.481 11.2661 385.457 21.0154C380.889 29.8784 384 46.1757 384 56L271 56C271 45.9315 273.677 31.268 269.231 22.0038C264.34 11.8095 248.93 11.1724 243.279 21.0154C238.059 30.1056 241 45.8354 241 56M122 16L123 17L122 16M125 19L126 20L125 19z"/>
<path style="fill:#ff0101; stroke:none;" d="M243 20L244 21L243 20M268 20L269 21L268 20z"/>
<path style="fill:#fecc13; stroke:none;" d="M29 71L30 72L29 71M28 72L29 73L28 72z"/>
<path style="fill:#ff0101; stroke:none;" d="M483 72L484 73L483 72z"/>
<path style="fill:#fecc13; stroke:none;" d="M23 78L24 79L23 78z"/>
<path style="fill:#ff0101; stroke:none;" d="M488 78L489 79L488 78z"/>
<path style="fill:#010101; stroke:none;" d="M43 156L469 156C469 136.42 476.779 98.2289 455 87.9197C443.721 82.581 425.289 86 413 86C413 95.8563 415.87 111.129 411.08 119.985C405.375 130.535 389.743 130.632 385.009 118.999C381.341 109.986 384 95.6573 384 86L271 86C271 95.8851 273.492 109.815 269.347 119C264.211 130.382 249.103 130.907 243.14 119.999C238.221 111.001 241 95.9595 241 86L128 86C128 95.6573 130.659 109.986 126.991 118.999C122.153 130.887 107.09 130.162 101.009 119.999C95.9565 111.554 99 95.593 99 86C86.7111 86 68.2787 82.581 57 87.9197C35.2206 98.2289 43 136.42 43 156z"/>
<path style="fill:#fecc13; stroke:none;" d="M17 89L18 90L17 89z"/>
<path style="fill:#ff0101; stroke:none;" d="M494 89L495 90L494 89z"/>
<path style="fill:#fecc13; stroke:none;" d="M51 91L52 92L51 91M50 92L51 93L50 92z"/>
<path style="fill:#ff0101; stroke:none;" d="M461 92L462 93L461 92z"/>
<path style="fill:#fecc13; stroke:none;" d="M49 93L50 94L49 93z"/>
<path style="fill:#ef703d; stroke:none;" d="M46 97L47 98L46 97M14 100L15 101L14 100z"/>
<path style="fill:#fecc13; stroke:none;" d="M99 117L100 118L99 117z"/>
<path style="fill:#ff0101; stroke:none;" d="M412 117L413 118L412 117z"/>
<path style="fill:#ef703d; stroke:none;" d="M268 121L269 122L268 121z"/>
<path style="fill:#ff0101; stroke:none;" d="M408 124L409 125L408 124z"/>
<path style="fill:#ef703d; stroke:none;" d="M248 126L249 127L248 126z"/>
<path style="fill:#fecc13; stroke:none;" d="M263 126L264 127L263 126M250 127L251 128L250 127M261 127L262 128L261 127M14 148L14 388C14 417.088 5.80861 459.19 28.0401 481.985C51.6266 506.17 93.2977 498 124 498L368 498L340 470L346 470L346 469L141 469L85 469C75.8617 469 65.4103 470.47 57 466.164C35.9545 455.391 43 421.465 43 402L43 246L43 204C43 197.482 41.7416 189.859 45 184C33.6202 172.62 20.1553 162.496 14 148z"/>
<path style="fill:#010101; stroke:none;" d="M43 185L43 387L43 435C43 444.27 42.5699 453.564 49.213 460.957C56.6594 469.243 66.7777 469 77 469L129 469L355 469L355 390C355 380.383 352.3 366.478 360.108 359.225C367.567 352.295 381.627 355 391 355L469 355L469 185L43 185z"/>
<path style="fill:#ef703d; stroke:none;" d="M343 237L344 238L343 237z"/>
<path style="fill:#f7a12f; stroke:none;" d="M226 354L225 354C216.189 341.492 203.018 331.249 192.039 320.66C182.808 311.756 175.703 301.606 163 298L195 330.004L243 376L243 377L240 380C252.938 370.887 263.812 357.188 275 346L340 281C348.834 272.166 371.599 256.51 359.581 242.105C346.659 226.616 329.696 248.304 321 257L259 319C247.933 330.067 234.661 340.906 226 354z"/>
<path style="fill:#fecc13; stroke:none;" d="M339 239L340 240L339 239z"/>
<path style="fill:#f7a12f; stroke:none;" d="M469 287L469 355L390 355C380.699 355 366.518 352.248 359.225 359.34C352.277 366.097 355 380.203 355 389L355 469L340 470C345.726 478.129 353.842 484.244 361 491.039C364.294 494.166 367.543 498.277 372.576 497.616C379.717 496.678 386.218 488.76 391 483.999L426 449L473 402C480.586 394.414 491.177 386.596 496.231 377C499.981 369.881 498 358.831 498 351C498 340.609 500.996 324.762 497.397 315C493.853 305.389 477.238 292.803 469 287z"/>
<path style="fill:#fecc13; stroke:none;" d="M243 377C234.42 364.82 221.49 355.49 211 345C203.443 337.443 196.015 329.784 188 322.715C180.791 316.356 172.178 302.409 163 299.353C153.626 296.232 147.474 309.748 149.649 317C152.941 327.975 166.183 337.183 174 345L207 378C213.083 384.073 219.573 390.756 229 388.606C235.216 387.188 239.05 381.521 243 377M164 298L165 299L164 298z"/>
<path style="fill:#ef703d; stroke:none;" d="M165 298L166 299L165 298z"/>
<path style="fill:#f7a12f; stroke:none;" d="M158 299L159 300L158 299z"/>
<path style="fill:#fecc13; stroke:none;" d="M168.667 299.333L169.333 299.667L168.667 299.333M171 300L172 301L171 300M173 302L174 303L173 302z"/>
<path style="fill:#ef703d; stroke:none;" d="M152 303L153 304L152 303z"/>
<path style="fill:#fecc13; stroke:none;" d="M176 305L177 306L176 305z"/>
<path style="fill:#ef703d; stroke:none;" d="M150 306L151 307L150 306z"/>
<path style="fill:#fecc13; stroke:none;" d="M178 307L179 308L178 307M181 310L182 311L181 310M183 312L184 313L183 312M186 315L187 316L186 315M189 318L190 319L189 318z"/>
<path style="fill:#f7a12f; stroke:none;" d="M150 319L151 320L150 319z"/>
<path style="fill:#fecc13; stroke:none;" d="M191 320L192 321L191 320z"/>
<path style="fill:#f7a12f; stroke:none;" d="M152 322L153 323L152 322z"/>
<path style="fill:#fecc13; stroke:none;" d="M193 322L194 323L193 322M239 339L240 340L239 339M229 349L230 350L229 349M228 350L229 351L228 350M227 351L228 352L227 351M226 352L227 353L226 352M225 353L226 354L225 353z"/>
<path style="fill:#ef703d; stroke:none;" d="M361 357L362 358L361 357z"/>
<path style="fill:#fecc13; stroke:none;" d="M497 374L498 375L497 374z"/>
<path style="fill:#ef703d; stroke:none;" d="M495 378L496 379L495 378M494 379L495 380L494 379z"/>
<path style="fill:#010101; stroke:none;" d="M384 384L384 448L416 417L448 384L384 384z"/>
<path style="fill:#ef703d; stroke:none;" d="M216 386L217 387L216 386z"/>
<path style="fill:#fecc13; stroke:none;" d="M382 491L383 492L382 491M380 493L381 494L380 493M379 494L380 495L379 494z"/>
<path style="fill:#ef703d; stroke:none;" d="M378 495L379 496L378 495z"/>
<path style="fill:#fecc13; stroke:none;" d="M376 496L377 497L376 496M372 497L373 498L372 497z"/>
<path style="fill:#ef703d; stroke:none;" d="M374 497L375 498L374 497z"/>
</svg>
