<svg version="1.1" xmlns="http://www.w3.org/2000/svg" xmlns:xlink="http://www.w3.org/1999/xlink" width="512.000000pt" height="512.000000pt" viewBox="0,0,256,256"><g fill="#ffffff" fill-rule="nonzero" stroke="none" stroke-width="1" stroke-linecap="butt" stroke-linejoin="miter" stroke-miterlimit="10" stroke-dasharray="" stroke-dashoffset="0" font-family="none" font-weight="normal" font-size="none" text-anchor="none" style="mix-blend-mode: normal"><g transform="translate(-0.0127,-3.375) scale(0.5,0.5)"><g transform="translate(0,512) scale(0.1,-0.1)"><path d="M400,4867c-19,-6 -58,-34 -85,-62c-71,-70 -91,-145 -63,-239c16,-55 99,-138 154,-154c94,-28 169,-8 239,63c98,97 101,222 8,325c-65,72 -158,97 -253,67z"></path><path d="M2410,4874c-94,-12 -214,-38 -300,-66c-594,-190 -1025,-752 -1066,-1390c-9,-133 3,-183 57,-236c50,-51 93,-62 232,-62h115l6,34c13,67 74,171 134,228c154,147 364,178 554,82c109,-55 223,-200 244,-310l6,-34h168h168l6,34c13,67 74,171 134,228c192,183 472,183 664,0c60,-57 121,-161 134,-228l6,-34h123c115,0 126,2 176,28c43,22 59,38 82,82c29,55 29,56 24,185c-7,165 -28,280 -77,426c-78,236 -184,404 -369,590c-227,226 -467,357 -775,420c-98,20 -361,34 -446,23zM2818,4695c604,-118 1051,-624 1098,-1244l7,-91h-80h-80l-7,84c-22,293 -142,554 -350,762c-170,170 -372,280 -606,330c-106,23 -352,26 -455,5c-245,-48 -457,-161 -631,-335c-208,-208 -328,-468 -350,-760l-7,-86h-80h-80l7,91c49,652 535,1169 1182,1258c95,13 332,6 432,-14z"></path><path d="M4025,4855c-16,-15 -25,-36 -25,-55c0,-19 9,-40 25,-55c15,-16 36,-25 55,-25c19,0 40,9 55,25c16,15 25,36 25,55c0,19 -9,40 -25,55c-15,16 -36,25 -55,25c-19,0 -40,-9 -55,-25z"></path><path d="M505,3815c-50,-49 -15,-135 55,-135c41,0 80,39 80,80c0,41 -39,80 -80,80c-19,0 -40,-9 -55,-25z"></path><path d="M1840,3351c-94,-31 -169,-94 -206,-175l-24,-51l155,-3c85,-1 225,-1 310,0l154,3l-19,44c-32,69 -75,115 -141,151c-51,27 -76,34 -133,36c-39,2 -82,0 -96,-5z"></path><path d="M3120,3351c-94,-31 -169,-94 -206,-175l-24,-51l155,-3c85,-1 225,-1 310,0l154,3l-19,44c-32,69 -75,115 -141,151c-51,27 -76,34 -133,36c-39,2 -82,0 -96,-5z"></path><path d="M4745,3335c-16,-15 -25,-36 -25,-55c0,-19 9,-40 25,-55c15,-16 36,-25 55,-25c19,0 40,9 55,25c16,15 25,36 25,55c0,19 -9,40 -25,55c-15,16 -36,25 -55,25c-19,0 -40,-9 -55,-25z"></path><path d="M265,2935c-50,-49 -15,-135 55,-135c41,0 80,39 80,80c0,41 -39,80 -80,80c-19,0 -40,-9 -55,-25z"></path><path d="M1280,2885c0,-116 39,-186 125,-226c79,-37 145,-22 238,54c84,69 130,82 277,82c147,0 193,-13 277,-82c89,-72 92,-73 363,-73c271,0 274,1 363,73c84,69 130,82 277,82c147,0 193,-13 277,-82c93,-76 159,-91 238,-54c86,40 125,110 125,226v75h-1280h-1280z"></path><path d="M4560,2707c-49,-16 -133,-102 -148,-153c-28,-94 -8,-169 63,-239c101,-102 229,-102 330,0c98,97 101,222 8,325c-65,72 -158,97 -253,67z"></path><path d="M1844,2584c-3,-31 -4,-102 -2,-157c4,-90 10,-115 48,-212c112,-290 105,-258 105,-465v-185l-75,-220c-74,-217 -75,-221 -74,-320c0,-110 17,-169 74,-258l30,-47h77l78,1l65,201l65,201v156v156l-44,110c-99,251 -104,269 -109,411c-6,169 6,236 74,409c51,128 54,141 38,150c-9,6 -42,30 -72,53c-73,59 -108,72 -196,72h-75z"></path><path d="M3075,2620c-22,-11 -58,-35 -80,-52c-22,-18 -51,-40 -63,-48l-23,-15l55,-140c68,-173 80,-240 74,-409c-5,-142 -10,-160 -109,-411l-44,-110v-156v-156l65,-201l65,-201l78,-1h77l30,47c57,89 74,148 74,258c1,99 0,103 -74,320l-75,220v185c0,207 -7,175 105,465c38,97 44,122 48,212c2,55 1,126 -2,157l-7,56h-77c-56,0 -88,-6 -117,-20z"></path><path d="M1277,2368c-69,-177 -81,-242 -75,-412c5,-142 10,-161 109,-411l44,-110v-160v-160l-73,-219c-85,-253 -97,-338 -68,-476c17,-85 80,-215 131,-275l34,-40l57,57l57,56l-31,40c-41,52 -79,133 -93,202c-20,97 -8,168 72,405l74,220v185c0,207 7,177 -106,465c-40,103 -43,118 -47,231c-5,148 3,187 74,367c30,77 53,141 52,141c-2,1 -28,7 -58,14c-30,6 -64,14 -76,17c-18,6 -26,-8 -77,-137z"></path><path d="M3725,2495c-22,-8 -52,-14 -67,-14c-16,-1 -28,-3 -28,-5c0,-3 25,-67 55,-144c70,-179 78,-218 73,-366c-4,-113 -7,-128 -47,-231c-113,-288 -106,-258 -106,-465v-185l74,-220c80,-237 92,-308 72,-405c-14,-69 -52,-150 -93,-202l-31,-40l57,-56l57,-57l34,40c51,58 113,189 131,275c29,138 17,223 -68,476l-73,219v160v160l44,110c99,250 104,269 109,411c3,79 0,159 -7,200c-14,80 -119,354 -135,353c-6,-1 -29,-7 -51,-14z"></path><path d="M2317,2336c-73,-184 -80,-222 -75,-370c4,-113 7,-128 47,-231c113,-288 106,-258 106,-465v-185l-75,-220c-74,-217 -75,-221 -74,-320c0,-110 17,-169 74,-258l30,-47h209h209l31,46c56,86 75,148 75,259c1,99 0,103 -74,320l-75,220v185c0,207 -7,177 106,465c40,103 43,118 47,231c5,148 -2,186 -75,370l-56,144h-187h-187z"></path><path d="M720,1507c-49,-16 -133,-102 -148,-153c-28,-94 -8,-169 63,-239c101,-102 229,-102 330,0c98,97 101,222 8,325c-65,72 -158,97 -253,67z"></path></g></g></g></svg>