<?xml version="1.0" standalone="yes"?>
<svg xmlns="http://www.w3.org/2000/svg" width="512" height="512">
<path style="fill:#010101; stroke:none;" d="M0 0L0 512L512 512L512 0L0 0z"/>
<path style="fill:#ef743d; stroke:none;" d="M188 24C192.861 30.9001 202.986 43.638 211 46.6867C215.09 48.2427 220.852 46.2432 225 45.5903C233.801 44.205 243.094 43.0437 252 43.0008C279.285 42.8692 306.441 47.7782 332 57.4251C344.227 62.0402 370.142 82.2892 379.543 63.9854C390.067 43.4972 352.214 32.8981 339 28.0532C293.027 11.1976 234.561 6.64502 188 24z"/>
<path style="fill:#f6a02f; stroke:none;" d="M227 15L228 16L227 15M199 20L200 21L199 20M195 21L196 22L195 21M188.667 23.3333L189.333 23.6667L188.667 23.3333M185 26C171.624 24.8144 153.385 35.8386 142 42.1389C114.777 57.2034 90.4174 75.9898 70.4352 100C60.9724 111.37 54.2868 127.984 44 138L65 162L66 162C71.9213 145.948 83.8166 130.842 94.8696 118C125.393 82.5353 165.694 58.9619 211 48C206.064 40.9933 199.189 34.9403 193 29.0193C190.718 26.8355 187.752 23.296 185 26z"/>
<path style="fill:#ef743d; stroke:none;" d="M182 25L183 26L182 25M184 25L185 26L184 25z"/>
<path style="fill:#fdca11; stroke:none;" d="M178 26L179 27L178 26M167 30L168 31L167 30z"/>
<path style="fill:#ef743d; stroke:none;" d="M153 36L154 37L153 36M151 37L152 38L151 37M143 41L144 42L143 41z"/>
<path style="fill:#fdca11; stroke:none;" d="M141 42L142 43L141 42z"/>
<path style="fill:#f6a02f; stroke:none;" d="M244 43L245 44L244 43M212.667 47.3333L213.333 47.6667L212.667 47.3333z"/>
<path style="fill:#ef743d; stroke:none;" d="M207 48L208 49L207 48M197 51L198 52L197 51z"/>
<path style="fill:#fdca11; stroke:none;" d="M118 56L119 57L118 56z"/>
<path style="fill:#ef743d; stroke:none;" d="M179 57L180 58L179 57M165 63L166 64L165 63z"/>
<path style="fill:#ff0101; stroke:none;" d="M346 63L347 64L346 63z"/>
<path style="fill:#ef743d; stroke:none;" d="M163 64L164 65L163 64M106 65L107 66L106 65z"/>
<path style="fill:#fdca11; stroke:none;" d="M161 65L162 66L161 65z"/>
<path style="fill:#ef743d; stroke:none;" d="M94 75L95 76L94 75z"/>
<path style="fill:#fdca11; stroke:none;" d="M140 77L141 78L140 77M137 79L138 80L137 79M134 81L135 82L134 81z"/>
<path style="fill:#ef743d; stroke:none;" d="M334 199C344.004 191.953 352.353 181.647 361 173L410 124C417.848 116.152 432.474 104.856 425.427 92.0401C418.755 79.9033 405.398 85.6508 398 93.0008C376.072 114.787 350.483 135.891 331.167 160C324.196 168.701 342.435 175.606 344.883 183C346.629 188.275 336.75 195.096 334 199z"/>
<path style="fill:#ff0101; stroke:none;" d="M401 89L402 90L401 89z"/>
<path style="fill:#fdca11; stroke:none;" d="M122 90L123 91L122 90z"/>
<path style="fill:#ff0101; stroke:none;" d="M400 90L401 91L400 90M399 91L400 92L399 91M398 92L399 93L398 92M397 93L398 94L397 93z"/>
<path style="fill:#fdca11; stroke:none;" d="M75 94L76 95L75 94z"/>
<path style="fill:#ff0101; stroke:none;" d="M396 94L397 95L396 94M395 95L396 96L395 95z"/>
<path style="fill:#fdca11; stroke:none;" d="M115 96L116 97L115 96z"/>
<path style="fill:#ff0101; stroke:none;" d="M394 96L395 97L394 96M393 97L394 98L393 97M392 98L393 99L392 98M391 99L392 100L391 99M390 100L391 101L390 100z"/>
<path style="fill:#ef743d; stroke:none;" d="M69 101L70 102L69 101z"/>
<path style="fill:#ff0101; stroke:none;" d="M389 101L390 102L389 101M388 102L389 103L388 102M387 103L388 104L387 103M386 104L387 105L386 104M385 105L386 106L385 105M384 106L385 107L384 106M383 107L384 108L383 107M382 108L383 109L382 108M381 109L382 110L381 109M380 110L381 111L380 110M379 111L380 112L379 111M378 112L379 113L378 112z"/>
<path style="fill:#fdca11; stroke:none;" d="M60 113L61 114L60 113z"/>
<path style="fill:#ff0101; stroke:none;" d="M377 113L378 114L377 113M376 114L377 115L376 114M375 115L376 116L375 115M374 116L375 117L374 116z"/>
<path style="fill:#fdca11; stroke:none;" d="M57 117L58 118L57 117z"/>
<path style="fill:#ff0101; stroke:none;" d="M373 117L374 118L373 117M372 118L373 119L372 118M371 119L372 120L371 119z"/>
<path style="fill:#fdca11; stroke:none;" d="M55 120L56 121L55 120z"/>
<path style="fill:#ff0101; stroke:none;" d="M370 120L371 121L370 120M369 121L370 122L369 121M368 122L369 123L368 122M367 123L368 124L367 123M366 124L367 125L366 124M365 125L366 126L365 125z"/>
<path style="fill:#fdca11; stroke:none;" d="M87 126L88 127L87 126z"/>
<path style="fill:#ff0101; stroke:none;" d="M364 126L365 127L364 126M363 127L364 128L363 127M362 128L363 129L362 128z"/>
<path style="fill:#fdca11; stroke:none;" d="M49 129L50 130L49 129z"/>
<path style="fill:#ff0101; stroke:none;" d="M361 129L362 130L361 129z"/>
<path style="fill:#fdca11; stroke:none;" d="M84 130L85 131L84 130z"/>
<path style="fill:#ff0101; stroke:none;" d="M360 130L361 131L360 130M359 131L360 132L359 131z"/>
<path style="fill:#ef743d; stroke:none;" d="M489 324C488.986 314.564 493.685 303.531 495.246 294C497.87 277.982 498.006 262.188 498 246C497.988 213.797 488.707 179.863 474.742 151C469.66 140.499 454.944 119.371 443.005 137.105C434.874 149.184 449.308 166.67 453.796 178C464.047 203.875 469.327 232.192 468.996 260C468.853 272.039 462.431 288.469 465.032 300C466.778 307.745 482.043 320.756 489 324z"/>
<path style="fill:#ff0101; stroke:none;" d="M358 132L359 133L358 132M357 133L358 134L357 133M356 134L357 135L356 134M355 135L356 136L355 135M354 136L355 137L354 136z"/>
<path style="fill:#fdca11; stroke:none;" d="M45 137L46 138L45 137z"/>
<path style="fill:#ff0101; stroke:none;" d="M353 137L354 138L353 137M352 138L353 139L352 138z"/>
<path style="fill:#fdca11; stroke:none;" d="M44 139C27.318 172.774 16.6783 206.197 14.0895 244C7.89463 334.462 59.2838 422.604 137 466.999C190.001 497.276 253.898 504.916 313 491.349C326.946 488.147 340.976 483.639 354 477.691C358.814 475.493 365.06 473.566 368 469L375 467L375 466C369.949 464.847 353.233 451.311 354 446L354 445C322.1 457.998 290.124 469.624 255 468.946C153.398 466.986 65.7308 392.779 46.804 293C41.1083 262.973 43.1319 232.609 50.2353 203C52.5229 193.465 55.9642 184.091 59.6003 175C61.1776 171.056 64.8999 165.331 64.4691 161C63.7354 153.624 49.7281 143.035 44 139M351 139L352 140L351 139M350 140L351 141L350 140M349 141L350 142L349 141z"/>
<path style="fill:#f6a02f; stroke:none;" d="M42 142L43 143L42 142z"/>
<path style="fill:#fdca11; stroke:none;" d="M348 142L349 143L348 142M347 143L348 144L347 143z"/>
<path style="fill:#f6a02f; stroke:none;" d="M41 144L42 145L41 144z"/>
<path style="fill:#fdca11; stroke:none;" d="M346 144L347 145L346 144M345 145L346 146L345 145M344 146L345 147L344 146M343 147L344 148L343 147M72 148L73 149L72 148M342 148L343 149L342 148M341 149L342 150L341 149M71 150L72 151L71 150M340 150L341 151L340 150M339 151L340 152L339 151M338 152L339 153L338 152M337 153L338 154L337 153M336 154L337 155L336 154M335 155L336 156L335 155M334 156L335 157L334 156M67 157L68 158L67 157M333 157L334 158L333 157z"/>
<path style="fill:#ff0101; stroke:none;" d="M477 157L478 158L477 157z"/>
<path style="fill:#fdca11; stroke:none;" d="M332 158L333 159L332 158M331 159L332 160L331 159M330 160L331 161L330 160M329 161L330 162L329 161M328 162L329 163L328 162z"/>
<path style="fill:#f6a02f; stroke:none;" d="M64 163L65 164L64 163z"/>
<path style="fill:#fdca11; stroke:none;" d="M327 163L285 206L316 176L327 163z"/>
<path style="fill:#f6a02f; stroke:none;" d="M327 164L298 193C294.493 196.507 289.926 203.167 285 204.583C280.253 205.947 271.901 200.671 267 199.666C256.072 197.426 243.14 198.741 233 203.312C224.512 207.138 216.581 212.533 210.9 220.001C194.213 241.934 194.744 274.25 213.439 294.91C235.193 318.952 276.88 319.557 298.561 294.961C310.081 281.892 314.668 265.19 312.826 248C312.194 242.099 305.293 231.256 307.816 226C312.906 215.398 327.696 205.308 336 197C339.012 193.987 346.213 188.83 345.883 184C345.438 177.5 332.014 167.532 327 164M63 165L64 166L63 165z"/>
<path style="fill:#ff0101; stroke:none;" d="M448 165L449 166L448 165z"/>
<path style="fill:#f6a02f; stroke:none;" d="M62 167L63 168L62 167M60 172L61 173L60 172M28 173L29 174L28 173z"/>
<path style="fill:#ff0101; stroke:none;" d="M452 174L453 175L452 174z"/>
<path style="fill:#f6a02f; stroke:none;" d="M56 182L57 183L56 182z"/>
<path style="fill:#ff0101; stroke:none;" d="M488 187L489 188L488 187z"/>
<path style="fill:#fdca11; stroke:none;" d="M333 199L334 200L333 199M332 200L333 201L332 200z"/>
<path style="fill:#f6a02f; stroke:none;" d="M50 201L51 202L50 201z"/>
<path style="fill:#fdca11; stroke:none;" d="M331 201L332 202L331 201z"/>
<path style="fill:#ef743d; stroke:none;" d="M276 202L277 203L276 202z"/>
<path style="fill:#fdca11; stroke:none;" d="M330 202L331 203L330 202M329 203L330 204L329 203z"/>
<path style="fill:#ef743d; stroke:none;" d="M230 204L231 205L230 204z"/>
<path style="fill:#fdca11; stroke:none;" d="M328 204L329 205L328 204M228 205L229 206L228 205M327 205L328 206L327 205M326 206L327 207L326 206M325 207L326 208L325 207M324 208L325 209L324 208z"/>
<path style="fill:#f6a02f; stroke:none;" d="M18 209L19 210L18 209z"/>
<path style="fill:#ef743d; stroke:none;" d="M323 209L324 210L323 209M322 210L323 211L322 210z"/>
<path style="fill:#fdca11; stroke:none;" d="M321 211L322 212L321 211M218 212L219 213L218 212z"/>
<path style="fill:#ef743d; stroke:none;" d="M320 212L321 213L320 212z"/>
<path style="fill:#fdca11; stroke:none;" d="M319 213L320 214L319 213z"/>
<path style="fill:#ff0101; stroke:none;" d="M464 213L465 214L464 213z"/>
<path style="fill:#ef743d; stroke:none;" d="M318 214L319 215L318 214M317 215L318 216L317 215z"/>
<path style="fill:#fdca11; stroke:none;" d="M316 216L317 217L316 216z"/>
<path style="fill:#ef743d; stroke:none;" d="M315 217L316 218L315 217M314 218L315 219L314 218z"/>
<path style="fill:#fdca11; stroke:none;" d="M313 219L314 220L313 219z"/>
<path style="fill:#ef743d; stroke:none;" d="M312 220L313 221L312 220M311 221L312 222L311 221M310 222L311 223L310 222z"/>
<path style="fill:#fdca11; stroke:none;" d="M309 223L310 224L309 223z"/>
<path style="fill:#ef743d; stroke:none;" d="M308 224L309 225L308 224M307 225L308 226L307 225z"/>
<path style="fill:#fdca11; stroke:none;" d="M306 226L307 227L306 226z"/>
<path style="fill:#010101; stroke:none;" d="M251 228.468C215.365 235.188 225.686 290.192 261 283.532C296.562 276.826 286.335 221.804 251 228.468z"/>
<path style="fill:#f6a02f; stroke:none;" d="M15 229L16 230L15 229z"/>
<path style="fill:#ef743d; stroke:none;" d="M204 230L205 231L204 230z"/>
<path style="fill:#fdca11; stroke:none;" d="M309 235L310 236L309 235M282 264L283 265L282 264M199 265L200 266L199 265M468 266L469 267L468 266M200 270L201 271L200 270M233 272L234 273L233 272M204 281L205 282L204 281M307 281L308 282L307 281M205 283L206 284L205 283M212 293L213 294L212 293M299 293L300 294L299 293z"/>
<path style="fill:#f6a02f; stroke:none;" d="M465 293L466 294L465 293z"/>
<path style="fill:#fdca11; stroke:none;" d="M217 298L218 299L217 298z"/>
<path style="fill:#f6a02f; stroke:none;" d="M464.333 298.667L464.667 299.333L464.333 298.667z"/>
<path style="fill:#fdca11; stroke:none;" d="M218 299L219 300L218 299M293 299L294 300L293 299z"/>
<path style="fill:#f6a02f; stroke:none;" d="M464 301C455.119 344.03 430.42 384.548 398 413.83C389.301 421.687 379.807 428.734 370 435.139C364.171 438.945 356.696 441.824 352 447C357.087 452.087 366.274 465.568 373.715 466.4C377.697 466.845 382.819 462.383 386 460.421C396.622 453.867 406.548 446.266 416 438.13C441.679 416.029 463.447 387.209 476.85 356C480.057 348.532 489.249 333.23 487.212 325C485.227 316.978 470.576 305.632 464 301z"/>
<path style="fill:#ef743d; stroke:none;" d="M463 303L464 304L463 303z"/>
<path style="fill:#f6a02f; stroke:none;" d="M493 303L494 304L493 303z"/>
<path style="fill:#fdca11; stroke:none;" d="M228 306L229 307L228 306z"/>
<path style="fill:#ef743d; stroke:none;" d="M462 307L463 308L462 307z"/>
<path style="fill:#fdca11; stroke:none;" d="M270 311L271 312L270 311z"/>
<path style="fill:#ef743d; stroke:none;" d="M461 311L462 312L461 311z"/>
<path style="fill:#f6a02f; stroke:none;" d="M489 319L490 320L489 319z"/>
<path style="fill:#fdca11; stroke:none;" d="M489 320L490 321L489 320z"/>
<path style="fill:#f6a02f; stroke:none;" d="M488 322L489 323L488 322z"/>
<path style="fill:#fdca11; stroke:none;" d="M487 327L488 328L487 327M486 330L487 331L486 330z"/>
<path style="fill:#f6a02f; stroke:none;" d="M26 332L27 333L26 332z"/>
<path style="fill:#ef743d; stroke:none;" d="M485 333L486 334L485 333M482 341L483 342L482 341M481 344L482 345L481 344M479 349L480 350L479 349z"/>
<path style="fill:#fdca11; stroke:none;" d="M445 352L446 353L445 352M476 356L477 357L476 356M469 370L470 371L469 370z"/>
<path style="fill:#ef743d; stroke:none;" d="M434 371L435 372L434 371M432 374L433 375L432 374M430 377L431 378L430 377z"/>
<path style="fill:#fdca11; stroke:none;" d="M459 387L460 388L459 387M457 390L458 391L457 390z"/>
<path style="fill:#ef743d; stroke:none;" d="M455 393L456 394L455 393M415 396L416 397L415 396z"/>
<path style="fill:#f6a02f; stroke:none;" d="M71 412L72 413L71 412z"/>
<path style="fill:#fdca11; stroke:none;" d="M396 415L397 416L396 415M436 417L437 418L436 417M390 420L391 421L390 420z"/>
<path style="fill:#f6a02f; stroke:none;" d="M80 422L81 423L80 422z"/>
<path style="fill:#fdca11; stroke:none;" d="M385 424L386 425L385 424M381 427L382 428L381 427z"/>
<path style="fill:#f6a02f; stroke:none;" d="M89 431L90 432L89 431z"/>
<path style="fill:#fdca11; stroke:none;" d="M371 434L372 435L371 434M417 436L418 437L417 436M366 437L367 438L366 437M363 439L364 440L363 439z"/>
<path style="fill:#f6a02f; stroke:none;" d="M99 440L100 441L99 440z"/>
<path style="fill:#ef743d; stroke:none;" d="M361 440L362 441L361 440z"/>
<path style="fill:#fdca11; stroke:none;" d="M410 442L411 443L410 442M356 443L357 444L356 443z"/>
<path style="fill:#f6a02f; stroke:none;" d="M350 446L351 447L350 446z"/>
<path style="fill:#ef743d; stroke:none;" d="M405 446L406 447L405 446z"/>
<path style="fill:#f6a02f; stroke:none;" d="M348.667 447.333L349.333 447.667L348.667 447.333M347 448L348 449L347 448M344 449L345 450L344 449M339 451L340 452L339 451z"/>
<path style="fill:#ef743d; stroke:none;" d="M397 452L398 453L397 452z"/>
<path style="fill:#fdca11; stroke:none;" d="M394 454L395 455L394 454z"/>
<path style="fill:#f6a02f; stroke:none;" d="M329 455L330 456L329 455z"/>
<path style="fill:#ef743d; stroke:none;" d="M326 456L327 457L326 456z"/>
<path style="fill:#f6a02f; stroke:none;" d="M317 459L318 460L317 459z"/>
<path style="fill:#fdca11; stroke:none;" d="M385 460L386 461L385 460z"/>
<path style="fill:#f6a02f; stroke:none;" d="M310 461L311 462L310 461M306 462L307 463L306 462z"/>
<path style="fill:#ef743d; stroke:none;" d="M382 462L383 463L382 462z"/>
<path style="fill:#fdca11; stroke:none;" d="M378 464L379 465L378 464z"/>
<path style="fill:#f6a02f; stroke:none;" d="M285 466L286 467L285 466M368 469L369 470L368 469z"/>
<path style="fill:#ef743d; stroke:none;" d="M364 472L365 473L364 472z"/>
<path style="fill:#f6a02f; stroke:none;" d="M179 485L180 486L179 485z"/>
<path style="fill:#ef743d; stroke:none;" d="M323 488L324 489L323 488z"/>
<path style="fill:#f6a02f; stroke:none;" d="M215 494L216 495L215 494M290 495L291 496L290 495z"/>
</svg>
