<?xml version="1.0" standalone="yes"?>
<svg xmlns="http://www.w3.org/2000/svg" width="512" height="512">
<path style="fill:#010101; stroke:none;" d="M0 0L0 512L512 512L512 0L0 0z"/>
<path style="fill:#ef703d; stroke:none;" d="M203 20C207.839 26.87 218.71 41.5302 226.83 44.2415C233.842 46.5826 244.624 43.0118 252 43C268.803 42.973 285.572 44.7959 302 48.4244C345.491 58.0305 381.864 81.8643 413 113L382 113C373.11 113 360.044 110.64 352.015 115.14C342.527 120.457 342.719 135.383 352.015 140.721C358.774 144.602 368.516 143 376 143L430 143C437.829 143 448.633 144.782 454.786 138.772C459.73 133.944 459 127.321 459 121L459 84C459 70.5976 465.064 37.923 451.995 30.0092C444.298 25.3483 433.353 29.4019 430.653 38C426.278 51.9308 430 72.3975 430 87C383.99 40.9899 322.309 14 257 14C239.359 14 219.955 14.6382 203 20z"/>
<path style="fill:#ff0101; stroke:none;" d="M283 15L284 16L283 15z"/>
<path style="fill:#f7a42d; stroke:none;" d="M209 18L210 19L209 18M43 141L65 162C69.9908 148.29 79.9924 135.319 89.0039 124C125.088 78.674 171.535 58.418 226 45C222.328 38.6582 209.498 22.2563 202.167 20.3333C198.627 19.4049 193.375 22.3228 190 23.1667C178.111 26.1389 166.001 30.4858 155 35.8333C123.165 51.3088 92.8983 71.9884 70.3333 100C59.9165 112.931 52.6625 128.117 43 141z"/>
<path style="fill:#ef703d; stroke:none;" d="M201 20L202 21L201 20M192 22L193 23L192 22M173 28L174 29L173 28M170 29L171 30L170 29M165 31L166 32L165 31z"/>
<path style="fill:#fdca10; stroke:none;" d="M160 33L161 34L160 33z"/>
<path style="fill:#f7a42d; stroke:none;" d="M243 43L244 44L243 43M228 44L229 45L228 44M230.667 44.3333L231.333 44.6667L230.667 44.3333z"/>
<path style="fill:#ef703d; stroke:none;" d="M196 51L197 52L196 51z"/>
<path style="fill:#fdca10; stroke:none;" d="M193 52L194 53L193 52z"/>
<path style="fill:#ff0101; stroke:none;" d="M329 56L330 57L329 56z"/>
<path style="fill:#fdca10; stroke:none;" d="M114 59L115 60L114 59z"/>
<path style="fill:#ef703d; stroke:none;" d="M171 60L172 61L171 60z"/>
<path style="fill:#ff0101; stroke:none;" d="M339 60L340 61L339 60z"/>
<path style="fill:#fdca10; stroke:none;" d="M110 62L111 63L110 62M106 65L107 66L106 65M100 70L101 71L100 70z"/>
<path style="fill:#ff0101; stroke:none;" d="M361 71L362 72L361 71z"/>
<path style="fill:#fdca10; stroke:none;" d="M144 74L145 75L144 74z"/>
<path style="fill:#ff0101; stroke:none;" d="M416 74L417 75L416 74z"/>
<path style="fill:#fdca10; stroke:none;" d="M93 76L94 77L93 76M92 77L93 78L92 77z"/>
<path style="fill:#ff0101; stroke:none;" d="M385 87L386 88L385 87z"/>
<path style="fill:#fdca10; stroke:none;" d="M243 90L244 91L243 90z"/>
<path style="fill:#f7a42d; stroke:none;" d="M191 299C205.148 297.019 217.085 292.444 228 283L229 284C221.722 292.412 211.351 306.664 213.302 318.715C214.308 324.93 222.754 331.697 227.004 336C238.272 347.408 248.728 359.592 259.996 371C267.636 378.735 275.066 386.871 282.285 394.999C285.079 398.145 288.797 403.012 293.285 400.087C305.425 392.177 315.766 378.234 326 368L391 303C399.756 294.244 420.718 280.099 421.775 267C422.579 257.041 412.67 248.683 403 251.652C398.384 253.069 394.858 258.186 390 254.718C378.396 246.436 370.146 233.881 358.961 225.039C343.514 212.83 322.308 210.027 304 216.695C296.117 219.566 290.014 224.632 283 229C287.389 222.358 292.59 216.529 295.536 209C306.479 181.033 292.414 157.415 273 138C266.949 131.949 260.824 123.649 253 120L253 118C268.543 109.617 257.636 85.1569 241 91.2639C229.774 95.3849 219.338 110.662 211 119L144 186C137.004 192.996 129.915 199.911 123.015 207C120.571 209.51 116.351 213.032 117.137 217C118.435 223.559 128.175 230.108 132.424 235C146.509 251.214 162.491 265.786 176.576 282C180.999 287.092 189.051 292.494 191 299z"/>
<path style="fill:#ef703d; stroke:none;" d="M120 91L121 92L120 91z"/>
<path style="fill:#ff0101; stroke:none;" d="M390 91L391 92L390 91z"/>
<path style="fill:#ef703d; stroke:none;" d="M256 94L257 95L256 94z"/>
<path style="fill:#fdca10; stroke:none;" d="M257 95L258 96L257 95z"/>
<path style="fill:#ef703d; stroke:none;" d="M113 97L114 98L113 97z"/>
<path style="fill:#ff0101; stroke:none;" d="M397 97L398 98L397 97z"/>
<path style="fill:#fdca10; stroke:none;" d="M69 101L70 102L69 101M59 114L60 115L59 114z"/>
<path style="fill:#ef703d; stroke:none;" d="M96 114L97 115L96 114M256 115L257 116L256 115M253.333 118.667L253.667 119.333L253.333 118.667z"/>
<path style="fill:#fdca10; stroke:none;" d="M45 136L46 137L45 136M44 139L45 140L44 139z"/>
<path style="fill:#010101; stroke:none;" d="M232 140L140 232L140 233C152.363 245.363 167.996 268.585 187 269.787C197.856 270.474 204.204 262.485 213 257.996C224.714 252.018 239.738 254.606 248.816 264.093C257.552 273.224 260.295 287.743 254.095 299C249.194 307.897 241.561 313.853 242.105 325C243.021 343.78 266.827 359.827 279 372L280 372L372 280L372 279C359.637 266.637 344.004 243.415 325 242.213C314.7 241.561 308.283 248.696 300 253.2C288.078 259.682 273.631 257.539 264.04 247.96C254.925 238.856 252.022 224.708 257.996 213C262.265 204.634 269.407 199.075 269.895 189C270.775 170.851 245.41 149.446 232 140z"/>
<path style="fill:#f7a42d; stroke:none;" d="M351 140L352 141L351 140z"/>
<path style="fill:#fdca10; stroke:none;" d="M43 141C38.2399 152.485 31.9088 163.152 27.6921 175C17.0317 204.953 12.6505 237.283 14.0394 269C18.9586 381.341 108.226 480.661 220 495.718C269.146 502.338 310.764 492.07 357 477C355.514 470.75 343.678 455.033 336.91 454.213C332.991 453.738 327.683 457.117 324 458.329C315.185 461.232 306.102 463.731 297 465.551C269.472 471.056 241.527 471.089 214 465.551C126.546 447.956 56.8786 374.362 44.4244 286C40.5698 258.652 41.8473 230.797 48.8843 204C51.3734 194.521 54.5598 185.147 58.0648 176C59.5611 172.095 63.4324 167.273 63.2917 163C63.0494 155.641 49.1003 143.845 43 141z"/>
<path style="fill:#f7a42d; stroke:none;" d="M42.3333 142.667L42.6667 143.333L42.3333 142.667M41 144L42 145L41 144z"/>
<path style="fill:#ef703d; stroke:none;" d="M73 145L74 146L73 145M283 149L284 150L283 149M284 150L285 151L284 150M288 155L289 156L288 155z"/>
<path style="fill:#fdca10; stroke:none;" d="M65 159L66 160L65 159z"/>
<path style="fill:#ef703d; stroke:none;" d="M292 161L293 162L292 161M31 165L32 166L31 165z"/>
<path style="fill:#fdca10; stroke:none;" d="M296 170L297 171L296 170M263 171L264 172L263 171z"/>
<path style="fill:#f7a42d; stroke:none;" d="M59 172L60 173L59 172M58 174L59 175L58 174z"/>
<path style="fill:#ef703d; stroke:none;" d="M57 177L58 178L57 177M298 178L299 179L298 178z"/>
<path style="fill:#f7a42d; stroke:none;" d="M24 185L25 186L24 185z"/>
<path style="fill:#ef703d; stroke:none;" d="M54 185L55 186L54 185M269 192L270 193L269 192z"/>
<path style="fill:#f7a42d; stroke:none;" d="M51 194L52 195L51 194z"/>
<path style="fill:#fdca10; stroke:none;" d="M266 200L267 201L266 200z"/>
<path style="fill:#f7a42d; stroke:none;" d="M49 201L50 202L49 201z"/>
<path style="fill:#fdca10; stroke:none;" d="M297 202L298 203L297 202M264 203L265 204L264 203z"/>
<path style="fill:#f7a42d; stroke:none;" d="M47 209L48 210L47 209z"/>
<path style="fill:#fdca10; stroke:none;" d="M258 211L259 212L258 211M117 213L118 214L117 213M330 213L331 214L330 213M116 214L117 215L116 214M115 215C107.44 222.56 93.1796 232.204 90.6883 243C86.0089 263.277 109.751 262.347 120 253C123.472 259.692 129.717 264.717 135 270C148.951 283.951 169.789 304.494 192 298L165.09 269L115 215z"/>
<path style="fill:#ef703d; stroke:none;" d="M307 215L308 216L307 215z"/>
<path style="fill:#fdca10; stroke:none;" d="M304 216L305 217L304 216z"/>
<path style="fill:#f7a42d; stroke:none;" d="M45 219L46 220L45 219z"/>
<path style="fill:#ef703d; stroke:none;" d="M353 221L354 222L353 221z"/>
<path style="fill:#fdca10; stroke:none;" d="M287 222L288 223L287 222M288 225L289 226L288 225z"/>
<path style="fill:#ef703d; stroke:none;" d="M363 229L364 230L363 229M364 230L365 231L364 230z"/>
<path style="fill:#fdca10; stroke:none;" d="M255 233L256 234L255 233z"/>
<path style="fill:#ef703d; stroke:none;" d="M372 238L373 239L372 238z"/>
<path style="fill:#fdca10; stroke:none;" d="M257 239L258 240L257 239z"/>
<path style="fill:#ef703d; stroke:none;" d="M374 240L375 241L374 240M258 241L259 242L258 241M375 241L376 242L375 241M464 301L488 324C497.161 305.751 500.966 273.149 497.786 253C495.929 241.227 480.062 237.404 472.419 246.189C468.038 251.225 469.328 257.9 468.91 264C468.077 276.165 467.245 289.199 464 301M320 242L321 243L320 242M376 242L377 243L376 242M90 243L91 244L90 243M331 243L332 244L331 243M377 243L378 244L377 243z"/>
<path style="fill:#ff0101; stroke:none;" d="M491 243L492 244L491 243z"/>
<path style="fill:#fdca10; stroke:none;" d="M313 244L314 245L313 244M311 245L312 246L311 245M267 251L268 252L267 251M303 251L304 252L303 251z"/>
<path style="fill:#f7a42d; stroke:none;" d="M119 253L120 254L119 253z"/>
<path style="fill:#fdca10; stroke:none;" d="M270 253L271 254L270 253z"/>
<path style="fill:#ef703d; stroke:none;" d="M415 253L416 254L415 253z"/>
<path style="fill:#f7a42d; stroke:none;" d="M120 254L121 255L120 254z"/>
<path style="fill:#ef703d; stroke:none;" d="M416 254L417 255L416 254M396 255L397 256L396 255M418 256L419 257L418 256M419 257L420 258L419 257z"/>
<path style="fill:#fdca10; stroke:none;" d="M211 258L212 259L211 258z"/>
<path style="fill:#ef703d; stroke:none;" d="M421 262L422 263L421 262z"/>
<path style="fill:#fdca10; stroke:none;" d="M171 263L172 264L171 263M172 264L173 265L172 264M203 264L204 265L203 264M200 266L201 267L200 266M177 267L178 268L177 267M198 267L199 268L198 267M468 267L469 268L468 267M180 268L181 269L180 268M254 271L255 272L254 271z"/>
<path style="fill:#f7a42d; stroke:none;" d="M147 281L148 282L147 281M148 282L149 283L148 282M15 283L16 284L15 283M150 284L151 285L150 284z"/>
<path style="fill:#ef703d; stroke:none;" d="M257 287L258 288L257 287z"/>
<path style="fill:#f7a42d; stroke:none;" d="M155 288L156 289L155 288z"/>
<path style="fill:#fdca10; stroke:none;" d="M225 288L226 289L225 288M222 292L223 293L222 292z"/>
<path style="fill:#f7a42d; stroke:none;" d="M495 292L496 293L495 292M45 293L46 294L45 293z"/>
<path style="fill:#fdca10; stroke:none;" d="M256 293L257 294L256 293M209 294L210 295L209 294M207 295L208 296L207 295M220 295L221 296L220 295z"/>
<path style="fill:#f7a42d; stroke:none;" d="M465 295L466 296L465 295z"/>
<path style="fill:#ef703d; stroke:none;" d="M204 296L205 297L204 296M255 296L256 297L255 296z"/>
<path style="fill:#fdca10; stroke:none;" d="M197 297L198 298L197 297z"/>
<path style="fill:#ef703d; stroke:none;" d="M200 297L201 298L200 297z"/>
<path style="fill:#f7a42d; stroke:none;" d="M182 298L183 299L182 298M184 298L185 299L184 298z"/>
<path style="fill:#fdca10; stroke:none;" d="M194 298L195 299L194 298M218 299L219 300L218 299z"/>
<path style="fill:#f7a42d; stroke:none;" d="M464 299L465 300L464 299M465 300C456.427 319.926 452.334 340.615 441.688 360C418.444 402.325 381.146 432.794 338 453L357 476C404.193 457.665 443.559 417.561 467.86 374C473.968 363.052 479.162 351.741 483.575 340C485.077 336.004 488.156 329.756 487.431 325.424C486.049 317.175 471.394 304.89 465 300z"/>
<path style="fill:#fdca10; stroke:none;" d="M216 303L217 304L216 303M214 310L215 311L214 310M213 319L214 320L213 319M213 321C215.847 350.77 232.903 375.676 259 392L259 393C248.104 401.415 249.557 421.368 266 421.421C276.118 421.453 285.667 409.571 291 402C260.748 380.688 243.205 342.336 213 321z"/>
<path style="fill:#f7a42d; stroke:none;" d="M213 323L214 324L213 323M488 323L489 324L488 323M213 325L214 326L213 325z"/>
<path style="fill:#ef703d; stroke:none;" d="M487 325L488 326L487 325M455 330L456 331L455 330M486 330L487 331L486 330z"/>
<path style="fill:#f7a42d; stroke:none;" d="M213 332L214 333L213 332z"/>
<path style="fill:#fdca10; stroke:none;" d="M243 332L244 333L243 332M244 334L245 335L244 334M245 336L246 337L245 336M248 340L249 341L248 340z"/>
<path style="fill:#ef703d; stroke:none;" d="M451 340L452 341L451 340z"/>
<path style="fill:#f7a42d; stroke:none;" d="M217 346L218 347L217 346M227 361L228 362L227 361M228 362L229 363L228 362z"/>
<path style="fill:#ef703d; stroke:none;" d="M440 362L441 363L440 362z"/>
<path style="fill:#f7a42d; stroke:none;" d="M229 363L230 364L229 363M230 364L231 365L230 364M40 366L41 367L40 366M73 367L74 368L73 367z"/>
<path style="fill:#ef703d; stroke:none;" d="M468 372L469 373L468 372z"/>
<path style="fill:#f7a42d; stroke:none;" d="M46 377L47 378L46 377M255 389L256 390L255 389M256 390L257 391L256 390M257 391L258 392L257 391M258 392L259 393L258 392z"/>
<path style="fill:#ef703d; stroke:none;" d="M453 396L454 397L453 396z"/>
<path style="fill:#fdca10; stroke:none;" d="M292 400L293 401L292 400z"/>
<path style="fill:#f7a42d; stroke:none;" d="M251 408L252 409L251 408M253 414L254 415L253 414z"/>
<path style="fill:#fdca10; stroke:none;" d="M398 414L399 415L398 414z"/>
<path style="fill:#ef703d; stroke:none;" d="M258 419L259 420L258 419z"/>
<path style="fill:#fdca10; stroke:none;" d="M390 421L391 422L390 421M371 435L372 436L371 435z"/>
<path style="fill:#f7a42d; stroke:none;" d="M94 436L95 437L94 436z"/>
<path style="fill:#ef703d; stroke:none;" d="M366 438L367 439L366 438z"/>
<path style="fill:#fdca10; stroke:none;" d="M352 446L353 447L352 446M346 449L347 450L346 449z"/>
<path style="fill:#ef703d; stroke:none;" d="M334 454L335 455L334 454z"/>
<path style="fill:#f7a42d; stroke:none;" d="M329 456L330 457L329 456z"/>
<path style="fill:#ef703d; stroke:none;" d="M326 457L327 458L326 457z"/>
<path style="fill:#f7a42d; stroke:none;" d="M200 462L201 463L200 462z"/>
<path style="fill:#ef703d; stroke:none;" d="M306 463L307 464L306 463z"/>
<path style="fill:#fdca10; stroke:none;" d="M368 470L369 471L368 470M366 471L367 472L366 471M360 474L361 475L360 474M358 475L359 476L358 475z"/>
<path style="fill:#f7a42d; stroke:none;" d="M349 479L350 480L349 479M336 484L337 485L336 484M333 485L334 486L333 485M327 487L328 488L327 487M308 492L309 493L308 492z"/>
</svg>
