<?xml version="1.0" standalone="yes"?>
<svg xmlns="http://www.w3.org/2000/svg" width="512" height="512">
<path style="fill:#010101; stroke:none;" d="M0 0L0 512L512 512L512 0L0 0z"/>
<path style="fill:#f7a12e; stroke:none;" d="M99 56C79.097 56 56.9101 53.4394 39 63.8766C20.5106 74.6514 7.74923 101.884 15.6026 123C19.1948 132.659 33.7799 146.95 42 153C42.8522 133.152 35.949 96.6263 59 87.4792C70.2603 83.0109 86.9998 86 99 86C99 96.0035 95.9553 112.091 101.09 120.996C106.358 130.135 121.469 130.83 126.543 120.985C131.111 112.122 128 95.8242 128 86L241 86C241 96.1274 237.763 113.21 243.728 121.957C249.567 130.521 263.601 129.903 268.721 120.985C273.374 112.882 272.301 94.8624 270.026 86C266.955 74.0331 250.408 62.7236 243 53L242 53L242 57L128 56C128 46.2618 130.89 30.9914 126.91 22.0146C122.305 11.6237 106.653 11.521 101.09 21.0154C95.9214 29.8359 99 46.0595 99 56z"/>
<path style="fill:#ef6e3d; stroke:none;" d="M118 14L119 15L118 14M241 56L230 56L230 57L242 57L242 53L243 53C249.524 65.5752 270.166 76.0377 270 91L271 91L271 86L384 86C384 95.8243 380.889 112.122 385.457 120.985C390.531 130.83 405.642 130.135 410.91 120.996C416.045 112.091 413 96.0035 413 86C424.945 86 441.815 82.9631 453 87.4822C476.894 97.1361 469 135.623 469 156L334 156C338.16 164.019 350.795 180.847 359.285 184.397C367.729 187.926 382.865 185 392 185L469 185L469 270C469 281.559 465.99 298.001 469.564 309C473.061 319.764 489.287 334.975 498 342L498 154C498 128.254 503.822 96.1844 485.905 75.0394C467.267 53.0438 439.024 56 413 56C413 46.0595 416.079 29.8359 410.91 21.0154C405.603 11.9568 390.481 11.2661 385.457 21.0154C380.889 29.8784 384 46.1757 384 56L271 56C271 45.9315 273.677 31.268 269.231 22.0038C264.34 11.8095 248.93 11.1724 243.279 21.0154C238.059 30.1056 241 45.8354 241 56M122 16L123 17L122 16M125 19L126 20L125 19z"/>
<path style="fill:#fecc13; stroke:none;" d="M243 20L244 21L243 20z"/>
<path style="fill:#ff0101; stroke:none;" d="M268 20L269 21L268 20z"/>
<path style="fill:#fecc13; stroke:none;" d="M29 71L30 72L29 71M28 72L29 73L28 72z"/>
<path style="fill:#ff0101; stroke:none;" d="M483 72L484 73L483 72z"/>
<path style="fill:#fecc13; stroke:none;" d="M23 78L24 79L23 78z"/>
<path style="fill:#ff0101; stroke:none;" d="M488 78L489 79L488 78z"/>
<path style="fill:#010101; stroke:none;" d="M43 156L469 156C469 136.42 476.779 98.2289 455 87.9197C443.721 82.581 425.289 86 413 86C413 95.8563 415.87 111.129 411.08 119.985C405.375 130.535 389.743 130.632 385.009 118.999C381.341 109.986 384 95.6573 384 86L271 86C271 95.8851 273.492 109.815 269.347 119C264.211 130.382 249.103 130.907 243.14 119.999C238.221 111.001 241 95.9595 241 86L128 86C128 95.6573 130.659 109.986 126.991 118.999C122.153 130.887 107.09 130.162 101.009 119.999C95.9565 111.554 99 95.593 99 86C86.7111 86 68.2787 82.581 57 87.9197C35.2206 98.2289 43 136.42 43 156z"/>
<path style="fill:#fecc13; stroke:none;" d="M17 89L18 90L17 89z"/>
<path style="fill:#ff0101; stroke:none;" d="M494 89L495 90L494 89z"/>
<path style="fill:#fecc13; stroke:none;" d="M51 91L52 92L51 91M16 92L17 93L16 92M50 92L51 93L50 92z"/>
<path style="fill:#ff0101; stroke:none;" d="M461 92L462 93L461 92z"/>
<path style="fill:#fecc13; stroke:none;" d="M49 93L50 94L49 93z"/>
<path style="fill:#ef6e3d; stroke:none;" d="M46 97L47 98L46 97M14 100L15 101L14 100z"/>
<path style="fill:#fecc13; stroke:none;" d="M14 115L14 383C14 414.749 4.69133 461.261 31.0008 484.826C54.104 505.52 93.3516 498 122 498L346 498L322 470L328 470L328 469L124 469L79 469C68.262 469 58.1387 469.355 50.1049 460.957C42.52 453.028 43 443.196 43 433L43 387L43 185L69 185L45 157L51 157L51 156L43 156L43 147L42 147L42 153C30.5989 141.087 20.1954 129.726 14 115M99 117L100 118L99 117z"/>
<path style="fill:#ff0101; stroke:none;" d="M412 117L413 118L412 117z"/>
<path style="fill:#ef6e3d; stroke:none;" d="M268 121L269 122L268 121z"/>
<path style="fill:#ff0101; stroke:none;" d="M408 124L409 125L408 124z"/>
<path style="fill:#ef6e3d; stroke:none;" d="M248 126L249 127L248 126z"/>
<path style="fill:#fecc13; stroke:none;" d="M263 126L264 127L263 126M250 127L251 128L250 127M261 127L262 128L261 127z"/>
<path style="fill:#f7a12e; stroke:none;" d="M42 156L43 157L42 156M45 157C50.3632 164.644 61.3124 180.923 70.0895 184.397C76.0807 186.768 85.6091 185 92 185L141 185L358 185C354.335 177.138 341.026 159.943 332.83 156.603C327.911 154.599 320.248 156 315 156L274 156C197.791 156 121.081 153.733 45 157z"/>
<path style="fill:#010101; stroke:none;" d="M43 185L43 387L43 435C43 444.27 42.5699 453.564 49.213 460.957C56.6594 469.243 66.7777 469 77 469L129 469L355 469L355 390C355 380.383 352.3 366.478 360.108 359.225C367.567 352.295 381.627 355 391 355L469 355L469 185L43 185z"/>
<path style="fill:#f7a12e; stroke:none;" d="M235 312L235 313C219.228 324.11 200.11 343.228 189 359L207 341C211.186 345.544 220.433 360.793 227 360.793C238.491 360.793 244.6 336.056 256 336.056C260.783 336.056 266.886 344.886 270 348C280.778 358.778 291.425 372.715 304 381.347C311.65 386.598 324.352 383.776 326.606 373.999C330.854 355.569 302.142 338.137 291 327C287.885 323.887 279.056 317.782 279.056 313C279.056 308.459 287.061 302.939 290 300C301.132 288.868 315.459 277.9 324.486 265C328.178 259.724 328.023 251.044 323.606 246.214C318.323 240.437 309.118 240.595 303 244.804C290.404 253.47 279.797 267.203 269 278C266.061 280.939 260.541 288.944 256 288.944C251.217 288.944 245.114 280.114 242 277C231.88 266.88 218.045 246.459 204 242.344C191.54 238.694 180.529 251.145 186.457 263C189.932 269.95 197.576 275.576 203 281C213.236 291.236 223.162 303.661 235 312z"/>
<path style="fill:#ef6e3d; stroke:none;" d="M185 261L186 262L185 261M326 261L327 262L326 261z"/>
<path style="fill:#fecc13; stroke:none;" d="M186 263L187 264L186 263z"/>
<path style="fill:#f7a12e; stroke:none;" d="M469 310L469 355L390 355C380.699 355 366.518 352.248 359.225 359.34C352.277 366.097 355 380.203 355 389L355 469L322 470C334.143 489.413 349.923 503.759 374 497.442C381.372 495.508 386.844 488.156 392 483L427 448L474 401C481.195 393.805 491.711 386.202 496.312 377C499.863 369.898 500.22 349.319 497.062 342C492.494 331.415 477.935 317.204 469 310z"/>
<path style="fill:#fecc13; stroke:none;" d="M277 313L278 314L277 313M278 314L279 315L278 314M279 315L280 316L279 315M280 316L281 317L280 316M281 317L282 318L281 317M282 318L283 319L282 318M283 319L284 320L283 319M284 320L285 321L284 320M285 321L286 322L285 321M286 322L287 323L286 322M287 323L288 324L287 323M288 324L289 325L288 324M289 325L290 326L289 325M290 326L291 327L290 326M291 327L292 328L291 327M292 328L293 329L292 328M293 329L294 330L293 329M294 330L295 331L294 330M295 331L296 332L295 331M296 332L297 333L296 332M297 333L298 334L297 333M298 334L299 335L298 334M299 335L300 336L299 335M207 341C200.042 347.958 187.719 356.243 184.94 366.001C181.415 378.378 194.622 388.799 206 382.836C214.279 378.497 220.028 369.08 227 363L207 341z"/>
<path style="fill:#ef6e3d; stroke:none;" d="M361 357L362 358L361 357z"/>
<path style="fill:#fecc13; stroke:none;" d="M323 359L324 360L323 359z"/>
<path style="fill:#f7a12e; stroke:none;" d="M224 364L225 365L224 364z"/>
<path style="fill:#fecc13; stroke:none;" d="M326 364L327 365L326 364z"/>
<path style="fill:#f7a12e; stroke:none;" d="M184 367L185 368L184 367z"/>
<path style="fill:#fecc13; stroke:none;" d="M497 374L498 375L497 374z"/>
<path style="fill:#ef6e3d; stroke:none;" d="M495 378L496 379L495 378M321 381L322 382L321 381z"/>
<path style="fill:#fecc13; stroke:none;" d="M305 382L306 383L305 382M317 383L318 384L317 383z"/>
<path style="fill:#f7a12e; stroke:none;" d="M200 384L201 385L200 384z"/>
<path style="fill:#010101; stroke:none;" d="M384 384L384 448L416 417L448 384L384 384z"/>
<path style="fill:#ef6e3d; stroke:none;" d="M378 495L379 496L378 495M374 497L375 498L374 497z"/>
</svg>
