<?xml version="1.0" standalone="no"?>
<!DOCTYPE svg PUBLIC "-//W3C//DTD SVG 20010904//EN"
 "http://www.w3.org/TR/2001/REC-SVG-20010904/DTD/svg10.dtd">
<svg version="1.0" xmlns="http://www.w3.org/2000/svg"
 width="512.000000pt" height="512.000000pt" viewBox="0 0 512.000000 512.000000"
 preserveAspectRatio="xMidYMid meet">

<g transform="translate(0.000000,512.000000) scale(0.100000,-0.100000)"
fill="#000000" stroke="none">
<path d="M400 4867 c-19 -6 -58 -34 -85 -62 -71 -70 -91 -145 -63 -239 16 -55
99 -138 154 -154 94 -28 169 -8 239 63 98 97 101 222 8 325 -65 72 -158 97
-253 67z"/>
<path d="M2410 4874 c-94 -12 -214 -38 -300 -66 -594 -190 -1025 -752 -1066
-1390 -9 -133 3 -183 57 -236 50 -51 93 -62 232 -62 l115 0 6 34 c13 67 74
171 134 228 154 147 364 178 554 82 109 -55 223 -200 244 -310 l6 -34 168 0
168 0 6 34 c13 67 74 171 134 228 192 183 472 183 664 0 60 -57 121 -161 134
-228 l6 -34 123 0 c115 0 126 2 176 28 43 22 59 38 82 82 29 55 29 56 24 185
-7 165 -28 280 -77 426 -78 236 -184 404 -369 590 -227 226 -467 357 -775 420
-98 20 -361 34 -446 23z m408 -179 c604 -118 1051 -624 1098 -1244 l7 -91 -80
0 -80 0 -7 84 c-22 293 -142 554 -350 762 -170 170 -372 280 -606 330 -106 23
-352 26 -455 5 -245 -48 -457 -161 -631 -335 -208 -208 -328 -468 -350 -760
l-7 -86 -80 0 -80 0 7 91 c49 652 535 1169 1182 1258 95 13 332 6 432 -14z"/>
<path d="M4025 4855 c-16 -15 -25 -36 -25 -55 0 -19 9 -40 25 -55 15 -16 36
-25 55 -25 19 0 40 9 55 25 16 15 25 36 25 55 0 19 -9 40 -25 55 -15 16 -36
25 -55 25 -19 0 -40 -9 -55 -25z"/>
<path d="M505 3815 c-50 -49 -15 -135 55 -135 41 0 80 39 80 80 0 41 -39 80
-80 80 -19 0 -40 -9 -55 -25z"/>
<path d="M1840 3351 c-94 -31 -169 -94 -206 -175 l-24 -51 155 -3 c85 -1 225
-1 310 0 l154 3 -19 44 c-32 69 -75 115 -141 151 -51 27 -76 34 -133 36 -39 2
-82 0 -96 -5z"/>
<path d="M3120 3351 c-94 -31 -169 -94 -206 -175 l-24 -51 155 -3 c85 -1 225
-1 310 0 l154 3 -19 44 c-32 69 -75 115 -141 151 -51 27 -76 34 -133 36 -39 2
-82 0 -96 -5z"/>
<path d="M4745 3335 c-16 -15 -25 -36 -25 -55 0 -19 9 -40 25 -55 15 -16 36
-25 55 -25 19 0 40 9 55 25 16 15 25 36 25 55 0 19 -9 40 -25 55 -15 16 -36
25 -55 25 -19 0 -40 -9 -55 -25z"/>
<path d="M265 2935 c-50 -49 -15 -135 55 -135 41 0 80 39 80 80 0 41 -39 80
-80 80 -19 0 -40 -9 -55 -25z"/>
<path d="M1280 2885 c0 -116 39 -186 125 -226 79 -37 145 -22 238 54 84 69
130 82 277 82 147 0 193 -13 277 -82 89 -72 92 -73 363 -73 271 0 274 1 363
73 84 69 130 82 277 82 147 0 193 -13 277 -82 93 -76 159 -91 238 -54 86 40
125 110 125 226 l0 75 -1280 0 -1280 0 0 -75z"/>
<path d="M4560 2707 c-49 -16 -133 -102 -148 -153 -28 -94 -8 -169 63 -239
101 -102 229 -102 330 0 98 97 101 222 8 325 -65 72 -158 97 -253 67z"/>
<path d="M1844 2584 c-3 -31 -4 -102 -2 -157 4 -90 10 -115 48 -212 112 -290
105 -258 105 -465 l0 -185 -75 -220 c-74 -217 -75 -221 -74 -320 0 -110 17
-169 74 -258 l30 -47 77 0 78 1 65 201 65 201 0 156 0 156 -44 110 c-99 251
-104 269 -109 411 -6 169 6 236 74 409 51 128 54 141 38 150 -9 6 -42 30 -72
53 -73 59 -108 72 -196 72 l-75 0 -7 -56z"/>
<path d="M3075 2620 c-22 -11 -58 -35 -80 -52 -22 -18 -51 -40 -63 -48 l-23
-15 55 -140 c68 -173 80 -240 74 -409 -5 -142 -10 -160 -109 -411 l-44 -110 0
-156 0 -156 65 -201 65 -201 78 -1 77 0 30 47 c57 89 74 148 74 258 1 99 0
103 -74 320 l-75 220 0 185 c0 207 -7 175 105 465 38 97 44 122 48 212 2 55 1
126 -2 157 l-7 56 -77 0 c-56 0 -88 -6 -117 -20z"/>
<path d="M1277 2368 c-69 -177 -81 -242 -75 -412 5 -142 10 -161 109 -411 l44
-110 0 -160 0 -160 -73 -219 c-85 -253 -97 -338 -68 -476 17 -85 80 -215 131
-275 l34 -40 57 57 57 56 -31 40 c-41 52 -79 133 -93 202 -20 97 -8 168 72
405 l74 220 0 185 c0 207 7 177 -106 465 -40 103 -43 118 -47 231 -5 148 3
187 74 367 30 77 53 141 52 141 -2 1 -28 7 -58 14 -30 6 -64 14 -76 17 -18 6
-26 -8 -77 -137z"/>
<path d="M3725 2495 c-22 -8 -52 -14 -67 -14 -16 -1 -28 -3 -28 -5 0 -3 25
-67 55 -144 70 -179 78 -218 73 -366 -4 -113 -7 -128 -47 -231 -113 -288 -106
-258 -106 -465 l0 -185 74 -220 c80 -237 92 -308 72 -405 -14 -69 -52 -150
-93 -202 l-31 -40 57 -56 57 -57 34 40 c51 58 113 189 131 275 29 138 17 223
-68 476 l-73 219 0 160 0 160 44 110 c99 250 104 269 109 411 3 79 0 159 -7
200 -14 80 -119 354 -135 353 -6 -1 -29 -7 -51 -14z"/>
<path d="M2317 2336 c-73 -184 -80 -222 -75 -370 4 -113 7 -128 47 -231 113
-288 106 -258 106 -465 l0 -185 -75 -220 c-74 -217 -75 -221 -74 -320 0 -110
17 -169 74 -258 l30 -47 209 0 209 0 31 46 c56 86 75 148 75 259 1 99 0 103
-74 320 l-75 220 0 185 c0 207 -7 177 106 465 40 103 43 118 47 231 5 148 -2
186 -75 370 l-56 144 -187 0 -187 0 -56 -144z"/>
<path d="M720 1507 c-49 -16 -133 -102 -148 -153 -28 -94 -8 -169 63 -239 101
-102 229 -102 330 0 98 97 101 222 8 325 -65 72 -158 97 -253 67z"/>
</g>
</svg>
